<?xml version="1.0" encoding="UTF-8"?>
<svg id="Layer_1" data-name="Layer 1" xmlns="http://www.w3.org/2000/svg" viewBox="0 0 558.77 749.72">
  <defs>
    <style>
      .cls-1 {
        fill: #fff;
      }
    </style>
  </defs>
  <path class="cls-1" d="m228.43,531.83c6.15-6.83,15.02-11.1,24.87-11.1,18.48,0,33.45,14.97,33.45,33.45,0,.4,0,.8-.02,1.2v-.05l-5.92,162.07c-.68,17.97-15.4,32.32-33.5,32.32-1.92,0-3.82-.15-5.65-.47l.2.02c-44.07-7.57-83.28-24.05-117.25-47.55l.97.62c-8.77-6.13-14.45-16.17-14.45-27.55,0-8.65,3.27-16.52,8.65-22.45l-.03.02,108.63-120.73.05.18Zm-27.7-46.12l-157.53,39.3c-2.43.62-5.2.97-8.05.97-17.17,0-31.33-12.93-33.3-29.58l-.02-.15c-1.15-9.72-1.82-20.98-1.82-32.38,0-33.1,5.58-64.93,15.87-94.53l-.6,2.03c4.58-13.35,17.02-22.78,31.68-22.78,5.35,0,10.42,1.25,14.9,3.5l-.2-.1,145.83,71.2c11.25,5.53,18.85,16.93,18.85,30.07,0,15.57-10.68,28.67-25.1,32.35l-.22.05-.28.02Zm26.78-130.28L74.9,91.08c-2.8-4.77-4.45-10.53-4.45-16.68,0-13.23,7.68-24.67,18.8-30.1l.2-.08C137.4,20.77,193.28,5.02,252.23.2l1.68-.1c.78-.08,1.68-.1,2.6-.1,18.45,0,33.43,14.97,33.43,33.43v.05h0v305.17c0,18.48-14.97,33.45-33.45,33.45-12.33,0-23.08-6.65-28.87-16.58l-.08-.15-.03.05Zm149.85,136.45l154.4,50.17c13.53,4.5,23.12,17.05,23.12,31.85,0,5.22-1.2,10.17-3.35,14.6l.08-.2c-18.95,39.23-44.97,72.22-76.7,98.62l-.47.37c-5.75,4.75-13.18,7.65-21.3,7.65-11.92,0-22.4-6.23-28.35-15.62l-.08-.15-86.22-137.75c-3.2-5.03-5.07-11.15-5.07-17.72,0-18.45,14.95-33.4,33.4-33.4,3.67,0,7.22.6,10.52,1.7l-.23-.08.25-.05Zm156.98-98.47l-156.05,44.78c-2.75.83-5.92,1.3-9.2,1.3-18.42,0-33.38-14.95-33.38-33.38,0-7.05,2.17-13.57,5.9-18.95l-.08.1,90.75-134.57c6.1-8.95,16.25-14.75,27.78-14.75,8.48,0,16.23,3.15,22.13,8.35l-.02-.03c31.25,27.6,56.25,61.48,73.12,99.75l.72,1.82c1.75,3.95,2.78,8.55,2.78,13.37,0,15.2-10.13,28.02-23.97,32.15l-.23.05h-.25Z"/>
</svg>